#tb 0: 1/25
0,          0,          0,        1,   405504, 0xbbfccc5d
0,          1,          1,        1,   405504, 0xac9682d3
0,          2,          2,        1,   405504, 0x6f7426c4
0,          3,          3,        1,   405504, 0x43469a25
0,          4,          4,        1,   405504, 0x75f7e902
0,          5,          5,        1,   405504, 0xad19a433
0,          6,          6,        1,   405504, 0xf11090f3
0,          7,          7,        1,   405504, 0xe8ce9d18
0,          8,          8,        1,   405504, 0xcf24926c
0,          9,          9,        1,   405504, 0x740999d2
0,         10,         10,        1,   405504, 0xb588dabd
0,         11,         11,        1,   405504, 0x3e49d8d1
0,         12,         12,        1,   405504, 0xe3d980ae
0,         13,         13,        1,   405504, 0x70c9c2a3
0,         14,         14,        1,   405504, 0x6b704efc
0,         15,         15,        1,   405504, 0x43e92e97
0,         16,         16,        1,   405504, 0x36c884fa
0,         17,         17,        1,   405504, 0xaf19b6d7
0,         18,         18,        1,   405504, 0x5478dbb2
0,         19,         19,        1,   405504, 0xb09f552c
0,         20,         20,        1,   405504, 0x0bb97177
0,         21,         21,        1,   405504, 0xaf2b8660
0,         22,         22,        1,   405504, 0xe0ef2941
0,         23,         23,        1,   405504, 0x5d934bc5
0,         24,         24,        1,   405504, 0x5fff55ec
0,         25,         25,        1,   405504, 0xcdf4359f
0,         26,         26,        1,   405504, 0x3a773cd9
0,         27,         27,        1,   405504, 0x73991118
0,         28,         28,        1,   405504, 0x7dc1088b
0,         29,         29,        1,   405504, 0x878e06c8
0,         30,         30,        1,   405504, 0xcfee8070
0,         31,         31,        1,   405504, 0x563a6a8b
0,         32,         32,        1,   405504, 0xb6af32d8
0,         33,         33,        1,   405504, 0x7a0e3783
0,         34,         34,        1,   405504, 0xcd3e3835
0,         35,         35,        1,   405504, 0x0e7df06c
0,         36,         36,        1,   405504, 0x61aaa4ff
0,         37,         37,        1,   405504, 0x3c5998cc
0,         38,         38,        1,   405504, 0x81b5c32a
0,         39,         39,        1,   405504, 0xf8ca41ad
0,         40,         40,        1,   405504, 0x109aa08e
0,         41,         41,        1,   405504, 0xb9c6a26f
0,         42,         42,        1,   405504, 0xd221a69f
0,         43,         43,        1,   405504, 0x670bda84
0,         44,         44,        1,   405504, 0xf9903d5b
0,         45,         45,        1,   405504, 0xe19d1db4
0,         46,         46,        1,   405504, 0xcefa1fea
0,         47,         47,        1,   405504, 0x00b9fe31
0,         48,         48,        1,   405504, 0x051a319f
0,         49,         49,        1,   405504, 0x2d73bdd5
